<svg xmlns="http://www.w3.org/2000/svg" width="21.51" height="21.512" viewBox="0 0 21.51 21.512">
  <g id="Group_2145" data-name="Group 2145" transform="translate(-2648.006 -2167)">
    <g id="Group_2144" data-name="Group 2144" transform="translate(2648.006 2167)">
      <path id="Path_201" data-name="Path 201" d="M2664.976,2188.512a2.626,2.626,0,0,1-1.476-.458l-4.608-3.125a.247.247,0,0,0-.279,0l-4.607,3.124a2.6,2.6,0,0,1-3.012-.043,2.656,2.656,0,0,1-1.008-2.9l1.629-5.8-2.839-2.887a2.675,2.675,0,0,1,1.906-4.551h4.358l1.258-3.2a2.64,2.64,0,0,1,4.914,0h0l1.257,3.2h4.386a2.663,2.663,0,0,1,1.9,4.531l-2.859,2.907,1.629,5.8a2.657,2.657,0,0,1-1.008,2.9A2.62,2.62,0,0,1,2664.976,2188.512Z" transform="translate(-2648.006 -2167)" fill="#f5a301"/>
    </g>
  </g>
</svg>
