<svg xmlns="http://www.w3.org/2000/svg" width="143.586" height="104.861" viewBox="0 0 143.586 104.861">
  <path id="Path_21" data-name="Path 21" d="M1316.734,2060.953a3.444,3.444,0,0,0-.136-.671,3.341,3.341,0,0,0-.238-.566,3.22,3.22,0,0,0-.351-.518,3.255,3.255,0,0,0-.477-.472c-.089-.071-.141-.171-.236-.232l-9.887-6.474a18.923,18.923,0,0,0-2.32-37.7c-.47,0-.932.052-1.395.089a18.929,18.929,0,0,0-35.868.012c-.6-.06-1.211-.1-1.827-.1a19.02,19.02,0,0,0-18.38,14.468h-18.134a7.42,7.42,0,0,0-5.067,1.166l-42.473,27.593a3.319,3.319,0,1,0,3.616,5.566l7.524-4.889v37.961c0,5.636,4.312,10.218,9.612,10.218h94.218c5.3,0,9.614-4.582,9.614-10.218v-31.591h8.931l.018,0a3.356,3.356,0,0,0,1.168-.239c.069-.026.138-.047.2-.078a3.312,3.312,0,0,0,.927-.624c.05-.047.084-.1.13-.153a3.119,3.119,0,0,0,.349-.411,2.435,2.435,0,0,0,.108-.268,3.611,3.611,0,0,0,.378-1.269c.007-.1.057-.181.057-.278C1316.8,2061.157,1316.743,2061.061,1316.734,2060.953Zm-43.344-3-34.4-22.533h28.855a1.048,1.048,0,0,1,.276.107l34.242,22.426Zm-9.392-37a12.3,12.3,0,0,1,9.313,4.266,3.318,3.318,0,1,0,5.022-4.336,18.852,18.852,0,0,0-6.085-4.654,12.28,12.28,0,0,1,23.653,2.266l.156,2.091a12.312,12.312,0,0,1-.547,3.528,3.318,3.318,0,0,0,2.19,4.15,3.393,3.393,0,0,0,.981.149,3.32,3.32,0,0,0,3.171-2.34,18.948,18.948,0,0,0,.8-5.095c.143-.006.285-.026.431-.026a12.3,12.3,0,0,1,0,24.591h-6.716a3.265,3.265,0,0,0-.652.13l-23.971-15.7a7.613,7.613,0,0,0-3.144-1.183c-.118-.014-.225.028-.34.025-.055,0-.1-.032-.156-.032H1252.6A12.323,12.323,0,0,1,1264,2020.951Zm-45.993,78.813v-25.428a7.208,7.208,0,0,1,14.415,0v25.428Zm30.426,0h-9.376v-25.428a13.842,13.842,0,0,0-27.685,0v25.428H1200.7c-1.642,0-2.977-1.609-2.977-3.584v-41.944c0-.1-.049-.189-.056-.29l28.373-18.434a.941.941,0,0,1,.209-.094h.578a1.1,1.1,0,0,1,.214.107l29.777,19.5v41.152c0,1.975-1.337,3.584-2.98,3.584Zm49.459-3.584c0,1.975-1.333,3.584-2.977,3.584h-32.107a10.659,10.659,0,0,0,.644-3.584v-36.8l7.132,4.671a3.316,3.316,0,0,0,1.816.543h25.492Z" transform="translate(-1178.432 -2001.537)" fill="#012c1e"/>
</svg>
