<svg xmlns="http://www.w3.org/2000/svg" xmlns:xlink="http://www.w3.org/1999/xlink" width="92.568" height="113.989" viewBox="0 0 92.568 113.989">
  <defs>
    <filter id="Path_5" x="0" y="0" width="92.568" height="113.989" filterUnits="userSpaceOnUse">
      <feOffset dx="6" dy="6" input="SourceAlpha"/>
      <feGaussianBlur stdDeviation="6" result="blur"/>
      <feFlood flood-opacity="0.161"/>
      <feComposite operator="in" in2="blur"/>
      <feComposite in="SourceGraphic"/>
    </filter>
  </defs>
  <g id="Group_80" data-name="Group 80" transform="translate(-754.165 -853.927)">
    <g transform="matrix(1, 0, 0, 1, 754.17, 853.93)" filter="url(#Path_5)">
      <path id="Path_5-2" data-name="Path 5" d="M3768.77,800.9c-6.044-8.654-11.979-17.417-18.234-25.923-5.379-7.319-10.216-15.286-10.1-24.7a27.832,27.832,0,0,1,9.043-19.88,28.43,28.43,0,0,1,45.423,9.772c4.377,10.38,1.5,21.565-4.8,30.44q-10.718,15.115-21.334,30.292" transform="translate(-3728.43 -710.91)" fill="#06543c"/>
    </g>
    <path id="Path_19" data-name="Path 19" d="M1210.628,2015.368a.808.808,0,0,0-.032-.156.777.777,0,0,0-.055-.132.783.783,0,0,0-.193-.231c-.021-.017-.033-.04-.055-.054l-2.3-1.507a4.405,4.405,0,0,0-.54-8.777c-.109,0-.217.012-.325.021a4.406,4.406,0,0,0-8.35,0c-.141-.014-.282-.023-.425-.023a4.428,4.428,0,0,0-4.279,3.368h-4.221a1.727,1.727,0,0,0-1.179.271l-9.888,6.423a.773.773,0,1,0,.842,1.3l1.752-1.138v8.837a2.314,2.314,0,0,0,2.238,2.379h21.933a2.314,2.314,0,0,0,2.238-2.379v-7.354h2.083a.781.781,0,0,0,.272-.056c.016-.006.032-.011.048-.018a.772.772,0,0,0,.216-.145c.011-.011.02-.024.03-.036a.717.717,0,0,0,.081-.1.594.594,0,0,0,.025-.062.84.84,0,0,0,.088-.3c0-.022.013-.042.013-.065S1210.63,2015.393,1210.628,2015.368Zm-10.09-.7-8.009-5.245h6.717a.248.248,0,0,1,.064.025l7.971,5.221Zm-2.186-8.613a2.863,2.863,0,0,1,2.168.993.772.772,0,1,0,1.169-1.009,4.391,4.391,0,0,0-1.417-1.083,2.859,2.859,0,0,1,5.506.528l.036.487a2.864,2.864,0,0,1-.127.821.772.772,0,0,0,.51.966.786.786,0,0,0,.228.035.773.773,0,0,0,.738-.545,4.413,4.413,0,0,0,.187-1.186c.033,0,.066-.006.1-.006a2.862,2.862,0,1,1,0,5.724h-1.563a.753.753,0,0,0-.152.03l-5.58-3.655a1.771,1.771,0,0,0-.732-.275c-.027,0-.052.006-.079.006s-.023-.007-.036-.007H1195.7A2.869,2.869,0,0,1,1198.351,2006.056Zm-10.707,18.347v-5.92a1.678,1.678,0,0,1,3.356,0v5.92Zm7.083,0h-2.183v-5.92a3.222,3.222,0,0,0-6.445,0v5.92h-2.485a.775.775,0,0,1-.693-.834V2013.8c0-.024-.011-.044-.013-.068l6.6-4.291a.217.217,0,0,1,.049-.022h.135a.263.263,0,0,1,.05.025l6.932,4.54v9.58a.775.775,0,0,1-.694.834Zm11.514-.834a.774.774,0,0,1-.693.834h-7.474a2.481,2.481,0,0,0,.15-.834V2015l1.66,1.087a.773.773,0,0,0,.423.126h5.934Z" transform="translate(-400.94 -1119.413)" fill="#fff"/>
  </g>
</svg>
