<svg id="Group_36" data-name="Group 36" xmlns="http://www.w3.org/2000/svg" width="60.304" height="61.399" viewBox="0 0 60.304 61.399">
  <g id="Group_22" data-name="Group 22" transform="translate(0)">
    <path id="Path_11" data-name="Path 11" d="M25.944,0H3.061A18.9,18.9,0,0,0-15.65,19.051v23.3A18.9,18.9,0,0,0,3.061,61.4H25.944A18.9,18.9,0,0,0,44.654,42.349v-23.3A18.9,18.9,0,0,0,25.944,0M38.855,42.349A13.045,13.045,0,0,1,25.944,55.5H3.061A13.045,13.045,0,0,1-9.851,42.349v-23.3A13.045,13.045,0,0,1,3.061,5.906H25.944A13.045,13.045,0,0,1,38.855,19.051Z" transform="translate(15.65)" fill="#06543c"/>
  </g>
  <g id="Group_23" data-name="Group 23" transform="translate(13.907 17.947)">
    <path id="Path_12" data-name="Path 12" d="M20.79,2.08A15.36,15.36,0,0,1,17.4,3,11.083,11.083,0,0,0,20.014-.62,8.85,8.85,0,0,1,15.982.956a7.054,7.054,0,0,0-5.124-2.211A7.205,7.205,0,0,0,3.716,6.014a7.493,7.493,0,0,0,.1,1.18,17.265,17.265,0,0,1-14.6-7.535,8.211,8.211,0,0,0-.4,5.007A8.425,8.425,0,0,0-8.645,9.1a5.7,5.7,0,0,1-3.128-1.068,8.522,8.522,0,0,0,1.72,4.832,8.142,8.142,0,0,0,4.215,2.775,9.99,9.99,0,0,1-3.8.266,11.753,11.753,0,0,0,6.915,4.718c-1.892,2.546-6.857,3.227-9.815,2.886C-5.009,30.152,18,27.2,18,6.014c0-.245-.013-.486-.037-.726A20.963,20.963,0,0,0,20.79,2.08" transform="translate(12.541 1.255)" fill="#06543c"/>
  </g>
</svg>
